<svg version="1.0" xmlns="http://www.w3.org/2000/svg" width="349" height="349" viewBox="0 0 349 349" preserveAspectRatio="xMidYMid meet">
 <g fill="#000000">
  <path d="M190.25 343.40 c-3.90 -1.50 -9.80 -4.75 -12.85 -7.05 -3.70 -2.70 -9.20 -8.40 -11.55 -11.80 -6.80 -10.05 -9.30 -20.15 -8.70 -35.25 0.45 -11.95 2.65 -20.20 8.15 -30.90 4.70 -9.10 9.70 -15.95 27.10 -37.15 3.45 -4.25 13.05 -17.15 15.35 -20.70 4 -6.20 7.60 -14.25 9 -20.15 1.50 -6.40 1.50 -7.35 0.25 -13 -1.95 -9 -5.95 -16.05 -11.20 -19.80 -5.25 -3.75 -9.80 -3.80 -16.50 -0.35 -4.50 2.35 -6.50 2.30 -11.15 -0.25 -4.05 -2.20 -7.85 -4.60 -11 -7 l-2.15 -1.60 0 1.55 c0 1.25 -0.45 1.85 -2.65 3.50 -1.45 1.10 -4.20 2.75 -6.10 3.65 -3.20 1.50 -4 1.65 -9.30 1.80 -8.45 0.30 -13.35 -1.20 -18.20 -5.50 -1.55 -1.30 -1.75 -1.80 -1.75 -3.90 0 -2.75 1.60 -5.30 4.90 -7.90 3.60 -2.85 5.80 -3.60 11.10 -3.60 5.45 0 7.60 0.80 13.70 4.95 1.95 1.30 4.35 2.80 5.30 3.30 l1.75 0.85 -2.05 -2.15 c-3.15 -3.35 -5.45 -7.05 -7.20 -11.45 -1.70 -4.55 -3.45 -11.40 -3.55 -14 -0.05 -0.95 -0.20 -2.25 -0.40 -2.90 l-0.30 -1.15 -4.75 2.35 c-6.65 3.30 -10.50 7.25 -15.70 16.20 -2.20 3.70 -5.20 8.80 -6.75 11.25 -5.30 8.60 -16.55 18.35 -27.90 24.15 -6 3.10 -9.40 4.10 -13.50 4.10 l-3.15 0 0 -1.60 c0 -1.45 0.35 -1.85 3.05 -3.60 15.85 -10.20 29.80 -24.15 34.45 -34.45 1.50 -3.30 3.15 -11.65 2.55 -12.75 -0.30 -0.50 -1.15 -0.25 -3.85 1.15 -3.70 1.95 -5.95 3.85 -8.25 6.90 -1.30 1.80 -1.40 2.15 -1.10 5.15 l0.30 3.20 -3.20 0 c-5.95 0 -7.95 -2.40 -7.95 -9.50 0 -3.05 0.25 -4.55 1.05 -6.25 1.40 -3 6.40 -7.60 15.85 -14.60 4.30 -3.20 9.55 -7.55 11.65 -9.65 9.60 -9.65 15.05 -21 17.50 -36.65 0.85 -5.35 1.65 -6.35 5.45 -6.35 3.10 0 4.20 0.65 6.95 4.25 1.45 1.90 -1.60 -3.75 -3.40 -6.25 -1.50 -2.15 -7.35 -8.25 -9.05 -9.50 l-1.25 -0.90 0.20 6.50 c0.15 7 -0.70 19 -1.50 20.50 -0.30 0.60 -1.05 0.90 -2.15 0.90 -1.65 0 -1.65 -0.05 -2 -2.70 -0.55 -4.80 -4.25 -22.40 -5.55 -26.50 -1.45 -4.60 -1.70 -10.50 -0.50 -12.75 0.95 -1.85 3.95 -3.05 7.65 -3.05 8.20 0 17.40 5.05 26.15 14.40 6.85 7.35 13.45 17.60 22.20 34.70 l5.05 9.90 1.15 -3.65 c1.45 -4.75 3.05 -13.85 3.05 -17.50 0 -2.95 0.90 -5.90 2.35 -7.45 0.60 -0.70 1.55 -0.90 3.90 -0.90 2.70 0 3.20 0.15 4.30 1.35 5.50 6.05 10.05 18.35 13.70 36.85 0.70 3.55 1.35 6.55 1.40 6.65 0.10 0.10 0.70 -1.50 1.25 -3.55 2.15 -7.35 1.15 -16.25 -2.90 -26.65 -5.20 -13.15 -15 -25.95 -23.10 -30.20 l-1.90 -0.95 0 4.10 c0 4.15 -1 10.70 -2.10 13.80 -0.50 1.35 -0.85 1.60 -2.20 1.60 -1.90 0 -1.90 0 -2.95 -6.35 -0.45 -2.70 -1.50 -7.70 -2.30 -11.10 -2.45 -10.35 -1.90 -15.40 1.90 -17.90 2.25 -1.45 9.50 -1.20 13.50 0.45 8.20 3.45 20.50 13.50 27.70 22.65 10.30 13.05 16.40 24.45 22 41.25 2.70 8.05 2.90 8.50 2.60 5.55 l-0.30 -3.20 3.70 0.30 c4.35 0.35 11.10 2.25 15.75 4.35 13.30 6 23 18.20 27.20 34 0.30 1.25 0.80 2.95 1.05 3.80 0.25 0.85 0.45 2.85 0.45 4.45 0 1.60 0.25 4.30 0.60 6.05 0.40 2.40 0.45 3.50 0 4.30 -0.30 0.65 -0.65 2.75 -0.80 4.65 -0.25 4.50 -0.85 7.10 -2.55 11.75 -4.65 12.65 -12.85 23.85 -23.75 32.50 -4.05 3.20 -4.05 3.25 -0.50 1.50 4.85 -2.40 8.85 -5.25 12.65 -8.95 3.20 -3.10 7.85 -8.65 7.85 -9.40 0 -0.15 0.30 -0.70 0.70 -1.10 0.35 -0.45 1.65 -2.65 2.85 -4.95 l2.15 -4.15 2 0.15 c1.40 0.10 2.20 0.45 2.55 1.15 0.30 0.55 1.35 2.25 2.30 3.80 2.25 3.45 5.40 9.95 6.05 12.40 0.25 1 0.70 2.70 1 3.80 0.75 2.65 1.10 18.05 0.45 20.25 -0.25 0.95 -0.70 2.75 -1.05 4 -0.90 3.65 -3 8 -6.40 13.25 -3.90 5.95 -13.40 15.20 -23.85 23.10 -7.05 5.35 -15.65 10.80 -29.75 18.90 -19.65 11.25 -26.10 15.75 -33.05 23.10 -7.60 8.05 -14 20.45 -16.95 32.65 -1.50 6.40 -2.10 14.35 -1.50 20 0.30 2.60 0.65 6.05 0.85 7.65 l0.25 2.85 -2.90 0 c-2.10 -0.05 -4.15 -0.50 -6.95 -1.60z"/>
  <path d="M132.05 268.35 c-2.40 -3.90 -2.70 -5.55 -2.75 -15.85 -0.05 -9.40 -0.10 -9.85 -1.35 -12.50 -1.60 -3.35 -4.45 -6.35 -7.25 -7.60 -2.85 -1.25 -12.50 -2.40 -20.30 -2.40 -8.25 0 -16.95 -1.20 -24.25 -3.30 -17 -4.90 -31.30 -17.85 -34.85 -31.55 -0.95 -3.70 -1 -11.20 -0.10 -13.80 1.80 -5.05 6.70 -8.15 13.60 -8.65 8.20 -0.65 11.95 0.65 14.10 4.80 1 1.95 1.15 2.80 1 6.50 -0.20 4.40 -0.25 4.45 -4.35 12.20 -1.95 3.70 -1.95 4.95 0.10 8.85 3.25 6.30 12.60 11.25 26.85 14.20 9.50 1.95 22.70 0.30 38 -4.75 12.85 -4.25 29.30 -11.85 36.35 -16.75 2.05 -1.45 3.75 -2.25 4.65 -2.25 1.45 0 1.50 0.05 1.50 2.45 0 4.30 -3.50 9.50 -9.65 14.40 -16.85 13.35 -25.80 31.85 -26.05 53.90 l-0.05 3.50 -2.05 0.15 c-1.90 0.15 -2.20 0 -3.15 -1.55z"/>
 </g>
 <g fill="#ffffff">
  <path d="M0 174.50 l0 -174.50 174.50 0 174.50 0 0 174.50 0 174.50 -174.50 0 -174.50 0 0 -174.50z m198.30 167.65 c-0.80 -3.65 -1.35 -11.95 -1.05 -16.65 1.25 -20.35 10.65 -39.40 25.50 -51.50 5.55 -4.50 11.50 -8.30 26.25 -16.75 14.10 -8.10 22.70 -13.55 29.75 -18.90 10.45 -7.90 19.95 -17.15 23.85 -23.10 3.40 -5.25 5.50 -9.60 6.40 -13.25 0.35 -1.25 0.80 -3.05 1.05 -4 0.65 -2.15 0.30 -14.50 -0.45 -17.25 -0.30 -1.10 -0.75 -2.80 -1 -3.80 -0.65 -2.45 -3.80 -8.95 -6.05 -12.40 -0.95 -1.55 -2 -3.25 -2.30 -3.75 -0.95 -1.80 -1.55 -1.35 -3.75 2.80 -1.15 2.30 -2.45 4.50 -2.80 4.95 -0.40 0.40 -0.70 0.95 -0.70 1.10 0 0.75 -4.65 6.30 -7.85 9.40 -5.50 5.40 -11.95 9.25 -19.45 11.70 -2.10 0.70 -4.75 1.25 -5.85 1.25 l-2 0 4.95 -3.30 c12.90 -8.60 21.70 -18.15 27.55 -29.95 3.95 -7.80 5.60 -13.30 6 -19.75 0.10 -2.05 0.40 -3.95 0.65 -4.15 0.20 -0.25 0.20 -1.25 -0.05 -2.25 -0.25 -1 -0.45 -3.30 -0.45 -5.05 0 -1.80 -0.20 -3.90 -0.45 -4.75 -0.25 -0.85 -0.75 -2.55 -1.05 -3.80 -4.95 -18.80 -17.10 -31.65 -34.60 -36.70 -2.30 -0.65 -5.25 -1.35 -6.55 -1.50 -2.35 -0.35 -2.45 -0.35 -2.10 0.70 0.70 2.20 0.50 10.20 -0.30 11.70 l-0.80 1.40 -0.65 -3.15 c-1.05 -5.15 -6.65 -21.75 -9.40 -27.85 -8.30 -18.45 -21.65 -35.20 -35.30 -44.30 -7.25 -4.85 -11 -6.45 -15.10 -6.45 -3.50 -0.05 -5.20 0.80 -6.70 3.30 -1.40 2.20 -1.25 5.15 0.45 12.40 0.80 3.40 1.85 8.40 2.30 11.10 1.05 6.45 1.25 6.85 2.05 4.95 1.10 -2.70 2.20 -9.80 2.20 -14.50 0 -2.80 0.20 -4.60 0.50 -4.60 0.30 0 1.80 0.65 3.40 1.45 11.20 5.80 22.40 22.15 26.85 39.40 1 3.85 1.25 5.95 1.25 11.10 0 5.65 -0.15 6.85 -1.50 11.15 -0.85 2.65 -1.95 5.30 -2.50 5.95 l-0.95 1.20 -0.05 -1.25 c0 -2 -2.90 -16.10 -4.55 -22.50 -3.10 -11.90 -6.70 -19.95 -10.90 -24.60 -1.45 -1.65 -3.95 -1.90 -5.20 -0.50 -1.40 1.55 -2.35 4.50 -2.35 7.35 0 5.75 -3.95 23.05 -5.45 24 -0.25 0.10 -2.35 -3.70 -4.75 -8.55 -5.05 -10.30 -10.95 -20.75 -16.05 -28.45 -9.55 -14.30 -22.55 -24.20 -32.05 -24.35 -7.40 -0.15 -9.30 3.50 -6.45 12.40 1.20 3.75 4.80 20.75 5.65 26.70 0.35 2.45 0.45 2.65 0.95 1.70 1 -1.80 1.80 -13.45 1.45 -21.30 -0.20 -4.10 -0.15 -7.40 0.05 -7.40 1.65 0 9.35 6.90 12.60 11.25 4.40 5.85 8.50 15.50 9.25 21.75 l0.35 2.75 -2.65 -4.75 c-3.40 -6.10 -7.65 -12.20 -9.15 -13.20 -3.25 -2.10 -5.30 -0.25 -6.20 5.55 -2.45 15.65 -7.90 27 -17.50 36.65 -2.10 2.10 -7.35 6.45 -11.65 9.65 -9.45 7 -14.45 11.60 -15.85 14.60 -1.25 2.65 -1.40 6.50 -0.35 9 0.85 2.05 3.40 3.75 5.65 3.75 l1.55 0 -0.25 -2.95 c-0.35 -3.50 0.45 -5.10 4.25 -8.70 2.15 -1.95 10.10 -6.35 11.55 -6.35 1 0 1.15 4.30 0.30 9.25 -1.55 9 -5.40 15.35 -15.25 25.30 -6.35 6.40 -10.20 9.50 -19.45 15.85 -5 3.45 -5.15 3.60 -3.45 3.60 6.95 0 22.80 -9.25 32.40 -18.95 4.90 -4.90 6.50 -7.20 14.30 -20.55 5.45 -9.30 9.05 -12.95 16.20 -16.40 7.65 -3.65 7.35 -3.65 7.75 0.35 0.80 7.95 3.80 17.25 7.35 22.50 3.95 5.90 11.85 12.35 20.75 16.95 l3.60 1.85 3.65 -1.85 c6.40 -3.25 12.35 -3.70 17.25 -1.35 7.50 3.65 13.70 15.20 14.50 27.25 0.55 8.05 -3.40 19.90 -10.10 30.25 -2.30 3.55 -11.90 16.50 -15.35 20.70 -20.95 25.55 -26.20 33.30 -31.15 46.15 -4.60 11.90 -5.50 27.85 -2.20 39.70 2.80 10 9.60 19.75 18.35 26.25 5.05 3.80 15.25 8.60 18.30 8.65 1.30 0 1.40 -0.10 1.10 -1.35z m-62.70 -74.95 c-0.05 -0.50 0.15 -4 0.45 -7.70 1.60 -19.95 10.35 -36.40 25.80 -48.65 4 -3.20 6.45 -5.95 8.35 -9.55 2.20 -4.15 1.80 -4.60 -1.90 -2.05 -9.10 6.40 -32.65 16.45 -45.80 19.55 -18.65 4.45 -33.85 3.45 -47.25 -3.10 -6.50 -3.15 -9.15 -5.35 -11.10 -9.15 -2.25 -4.30 -2.30 -7.70 -0.10 -11.85 3.60 -6.75 4.05 -7.95 4.30 -10.65 0.25 -3.40 -1.20 -6.70 -3.75 -8.35 -3.40 -2.30 -10.30 -2.15 -15.45 0.35 -4.85 2.35 -7.10 5.95 -7.15 11.65 -0.05 12.45 11 26.60 26.75 34.10 9.45 4.50 19.95 6.50 36 6.90 16.50 0.40 21.10 2.25 24.70 9.80 1.25 2.65 1.30 3.10 1.35 12.25 0.05 10.05 0.35 11.80 2.55 15.65 1.20 2.15 2.50 2.60 2.25 0.80z m19.95 -122.10 c2.30 -1.15 5.10 -2.85 6.20 -3.80 l2 -1.70 -1.70 -0.95 c-0.90 -0.50 -3.70 -2.20 -6.15 -3.80 -6.60 -4.35 -9.05 -5.35 -12.90 -5.35 -4.25 0 -7.65 1.55 -11.25 5.20 -4.45 4.45 -4.15 6.05 1.85 9.65 3.90 2.35 7.35 3.15 12.95 3 4.55 -0.10 5.10 -0.25 9 -2.25z"/>
  <path d="M143.90 142.70 c-1.75 -0.90 -2.40 -2.15 -2.40 -4.40 0 -1.35 0.30 -2 1.25 -2.60 1.65 -1.05 2.25 -0.55 2.25 2 0 2.35 0.65 3.30 2.35 3.30 1.35 0 2.15 -1.35 2.15 -3.70 0 -2 0.30 -2.15 1.90 -1 1.65 1.15 1.50 3.90 -0.35 5.75 -1.20 1.15 -1.90 1.45 -3.65 1.45 -1.20 -0.05 -2.75 -0.35 -3.50 -0.80z"/>
 </g>
</svg>